REM DIRINDEX 1\8,1\2\11,1\3\12,1\3\14,1\5\15,1\5\16,1\6\17,1\6\18,1\4\19,1\4\20,1\4\21,1\4\22,1\7\23,1\7\24,1\7\25,1\2\9\26,1\2\9\27,1\2\10\28,1\2\10\29,1\2\10\30,1\2\10\31,1\2\10\32,1\3\13\33,1\3\13\34,1\3\13\35
REM DIRNAME cjc123,folder01,folder02,folder03,folder04,folder05,folder06,folder07,folder08,folder09,folder10,folder11,folder12,folder13,folder14,folder15,folder16,folder17,folder18,folder19,folder20,folder21,folder22,folder23,folder24,folder25,folder26,folder27,folder28,folder29,folder30,folder31,folder32,folder33,folder34
TITLE ""
FILE "76 076_UNIT1_SET2.mp3" MP3
  TRACK 01 AUDIO
    TITLE "14:cjc123_7232"
    INDEX 01 00:00:00
  TRACK 02 AUDIO
    TITLE "0:"
    INDEX 01 00:02:49
  TRACK 03 AUDIO
    TITLE "33:cjc123_7233"
    INDEX 01 00:03:27
  TRACK 04 AUDIO
    TITLE "0:"
    INDEX 01 00:04:44
  TRACK 05 AUDIO
    TITLE "34:cjc123_7234"
    INDEX 01 00:04:50
  TRACK 06 AUDIO
    TITLE "0:"
    INDEX 01 00:05:50
  TRACK 07 AUDIO
    TITLE "35:cjc123_7235"
    INDEX 01 00:06:28
  TRACK 08 AUDIO
    TITLE "0:"
    INDEX 01 00:09:06
  TRACK 09 AUDIO
    TITLE "33:cjc123_7236"
    INDEX 01 00:09:55
  TRACK 10 AUDIO
    TITLE "0:"
    INDEX 01 00:10:49
  TRACK 11 AUDIO
    TITLE "34:cjc123_7237"
    INDEX 01 00:10:65
  TRACK 12 AUDIO
    TITLE "0:"
    INDEX 01 00:11:54
  TRACK 13 AUDIO
    TITLE "35:cjc123_7238"
    INDEX 01 00:12:38
  TRACK 14 AUDIO
    TITLE "0:"
    INDEX 01 00:15:30
  TRACK 15 AUDIO
    TITLE "33:cjc123_7239"
    INDEX 01 00:16:10
  TRACK 16 AUDIO
    TITLE "0:"
    INDEX 01 00:17:06
  TRACK 17 AUDIO
    TITLE "34:cjc123_7240"
    INDEX 01 00:17:33
  TRACK 18 AUDIO
    TITLE "0:"
    INDEX 01 00:18:39
  TRACK 19 AUDIO
    TITLE "35:cjc123_7241"
    INDEX 01 00:19:20
  TRACK 20 AUDIO
    TITLE "0:"
    INDEX 01 00:22:05
  TRACK 21 AUDIO
    TITLE "33:cjc123_7242"
    INDEX 01 00:22:68
  TRACK 22 AUDIO
    TITLE "0:"
    INDEX 01 00:23:61
  TRACK 23 AUDIO
    TITLE "34:cjc123_7243"
    INDEX 01 00:23:73
  TRACK 24 AUDIO
    TITLE "0:"
    INDEX 01 00:24:65
  TRACK 25 AUDIO
    TITLE "35:cjc123_7244"
    INDEX 01 00:25:45
  TRACK 26 AUDIO
    TITLE "0:"
    INDEX 01 00:29:05
  TRACK 27 AUDIO
    TITLE "33:cjc123_7245"
    INDEX 01 00:29:62
  TRACK 28 AUDIO
    TITLE "0:"
    INDEX 01 00:30:59
  TRACK 29 AUDIO
    TITLE "34:cjc123_7246"
    INDEX 01 00:30:69
  TRACK 30 AUDIO
    TITLE "0:"
    INDEX 01 00:31:61
  TRACK 31 AUDIO
    TITLE "35:cjc123_7247"
    INDEX 01 00:32:35
  TRACK 32 AUDIO
    TITLE "0:"
    INDEX 01 00:35:23
  TRACK 33 AUDIO
    TITLE "33:cjc123_7248"
    INDEX 01 00:36:07
  TRACK 34 AUDIO
    TITLE "0:"
    INDEX 01 00:36:72
  TRACK 35 AUDIO
    TITLE "34:cjc123_7249"
    INDEX 01 00:37:20
  TRACK 36 AUDIO
    TITLE "0:"
    INDEX 01 00:38:08
  TRACK 37 AUDIO
    TITLE "35:cjc123_7250"
    INDEX 01 00:38:69
  TRACK 38 AUDIO
    TITLE "0:"
    INDEX 01 00:40:73
  TRACK 39 AUDIO
    TITLE "33:cjc123_7251"
    INDEX 01 00:41:67
  TRACK 40 AUDIO
    TITLE "0:"
    INDEX 01 00:42:47
  TRACK 41 AUDIO
    TITLE "34:cjc123_7252"
    INDEX 01 00:42:66
  TRACK 42 AUDIO
    TITLE "0:"
    INDEX 01 00:43:62
  TRACK 43 AUDIO
    TITLE "35:cjc123_7253"
    INDEX 01 00:44:42
  TRACK 44 AUDIO
    TITLE "0:"
    INDEX 01 00:47:60
  TRACK 45 AUDIO
    TITLE "33:cjc123_7254"
    INDEX 01 00:48:34
  TRACK 46 AUDIO
    TITLE "0:"
    INDEX 01 00:49:41
  TRACK 47 AUDIO
    TITLE "34:cjc123_7255"
    INDEX 01 00:49:51
  TRACK 48 AUDIO
    TITLE "0:"
    INDEX 01 00:50:54
  TRACK 49 AUDIO
    TITLE "35:cjc123_7256"
    INDEX 01 00:51:30
  TRACK 50 AUDIO
    TITLE "0:"
    INDEX 01 00:53:64
  TRACK 51 AUDIO
    TITLE "33:cjc123_7257"
    INDEX 01 00:54:32
  TRACK 52 AUDIO
    TITLE "0:"
    INDEX 01 00:55:34
  TRACK 53 AUDIO
    TITLE "34:cjc123_7258"
    INDEX 01 00:55:50
  TRACK 54 AUDIO
    TITLE "0:"
    INDEX 01 00:56:45
  TRACK 55 AUDIO
    TITLE "35:cjc123_7259"
    INDEX 01 00:57:17
  TRACK 56 AUDIO
    TITLE "0:"
    INDEX 01 01:00:27
  TRACK 57 AUDIO
    TITLE "33:cjc123_7260"
    INDEX 01 01:01:15
  TRACK 58 AUDIO
    TITLE "0:"
    INDEX 01 01:02:10
  TRACK 59 AUDIO
    TITLE "34:cjc123_7261"
    INDEX 01 01:02:30
  TRACK 60 AUDIO
    TITLE "0:"
    INDEX 01 01:03:26
  TRACK 61 AUDIO
    TITLE "35:cjc123_7262"
    INDEX 01 01:04:01
  TRACK 62 AUDIO
    TITLE "0:"
    INDEX 01 01:06:28
  TRACK 63 AUDIO
    TITLE "33:cjc123_7263"
    INDEX 01 01:07:08
  TRACK 64 AUDIO
    TITLE "0:"
    INDEX 01 01:08:11
  TRACK 65 AUDIO
    TITLE "34:cjc123_7264"
    INDEX 01 01:08:27
  TRACK 66 AUDIO
    TITLE "0:"
    INDEX 01 01:09:30
  TRACK 67 AUDIO
    TITLE "35:cjc123_7265"
    INDEX 01 01:10:10
  TRACK 68 AUDIO
    TITLE "0:"
    INDEX 01 01:12:17
  TRACK 69 AUDIO
    TITLE "33:cjc123_7266"
    INDEX 01 01:12:68
  TRACK 70 AUDIO
    TITLE "0:"
    INDEX 01 01:13:55
  TRACK 71 AUDIO
    TITLE "34:cjc123_7267"
    INDEX 01 01:14:00
  TRACK 72 AUDIO
    TITLE "0:"
    INDEX 01 01:14:68
  TRACK 73 AUDIO
    TITLE "35:cjc123_7268"
    INDEX 01 01:15:42
  TRACK 74 AUDIO
    TITLE "0:"
    INDEX 01 01:18:27
  TRACK 75 AUDIO
    TITLE "33:cjc123_7269"
    INDEX 01 01:18:74
  TRACK 76 AUDIO
    TITLE "0:"
    INDEX 01 01:19:60
  TRACK 77 AUDIO
    TITLE "34:cjc123_7270"
    INDEX 01 01:20:04
  TRACK 78 AUDIO
    TITLE "0:"
    INDEX 01 01:20:69
  TRACK 79 AUDIO
    TITLE "35:cjc123_7271"
    INDEX 01 01:21:45
  TRACK 80 AUDIO
    TITLE "0:"
    INDEX 01 01:23:48
  TRACK 81 AUDIO
    TITLE "33:cjc123_7272"
    INDEX 01 01:24:28
  TRACK 82 AUDIO
    TITLE "0:"
    INDEX 01 01:25:29
  TRACK 83 AUDIO
    TITLE "34:cjc123_7273"
    INDEX 01 01:25:43
  TRACK 84 AUDIO
    TITLE "0:"
    INDEX 01 01:26:36
  TRACK 85 AUDIO
    TITLE "35:cjc123_7274"
    INDEX 01 01:27:22
  TRACK 86 AUDIO
    TITLE "0:"
    INDEX 01 01:29:09
  TRACK 87 AUDIO
    TITLE "33:cjc123_7275"
    INDEX 01 01:29:66
  TRACK 88 AUDIO
    TITLE "0:"
    INDEX 01 01:30:56
  TRACK 89 AUDIO
    TITLE "34:cjc123_7276"
    INDEX 01 01:30:69
  TRACK 90 AUDIO
    TITLE "0:"
    INDEX 01 01:31:61
  TRACK 91 AUDIO
    TITLE "35:cjc123_7277"
    INDEX 01 01:32:39
  TRACK 92 AUDIO
    TITLE "0:"
    INDEX 01 01:34:63
